<svg width="60" height="40" viewBox="0 0 60 40" fill="none" xmlns="http://www.w3.org/2000/svg">
<path d="M18.9752 28.5412C12.5288 29.7129 7.9038 29.4655 7.22886 27.5851C6.16487 24.6207 15.32 18.7204 27.6773 14.4066C40.0347 10.0927 50.9148 8.99876 51.9788 11.9632C52.6579 13.8552 49.1742 16.9431 43.3521 20.0512" stroke="#364D9D" stroke-width="2"/>
<ellipse cx="29.2393" cy="19.2872" rx="14.4337" ry="14.2347" fill="#364D9D"/>
<path fill-rule="evenodd" clip-rule="evenodd" d="M22.5034 14.9449C22.5034 14.3732 22.9734 13.9097 23.5531 13.9097H35.1001C35.6798 13.9097 36.1498 14.3732 36.1498 14.9449V24.2622C36.1498 24.8339 35.6798 25.2974 35.1001 25.2974H23.5531C22.9734 25.2974 22.5034 24.8339 22.5034 24.2622V14.9449ZM35.1001 14.9449H23.5531V24.2622H35.1001V14.9449Z" fill="#EDECEE"/>
<path fill-rule="evenodd" clip-rule="evenodd" d="M22.5034 16.4978C22.5034 16.212 22.7384 15.9802 23.0283 15.9802H35.6249C35.9148 15.9802 36.1498 16.212 36.1498 16.4978C36.1498 16.7837 35.9148 17.0155 35.6249 17.0155H23.0283C22.7384 17.0155 22.5034 16.7837 22.5034 16.4978Z" fill="#EDECEE"/>
<path fill-rule="evenodd" clip-rule="evenodd" d="M26.7023 18.0508C26.9922 18.0508 27.2272 18.2825 27.2272 18.5684C27.2272 19.1175 27.4483 19.6442 27.8421 20.0325C28.2358 20.4208 28.7698 20.6389 29.3266 20.6389C29.8834 20.6389 30.4174 20.4208 30.8111 20.0325C31.2048 19.6442 31.426 19.1175 31.426 18.5684C31.426 18.2825 31.661 18.0508 31.9509 18.0508C32.2408 18.0508 32.4758 18.2825 32.4758 18.5684C32.4758 19.3921 32.144 20.1821 31.5534 20.7645C30.9628 21.3469 30.1618 21.6742 29.3266 21.6742C28.4914 21.6742 27.6904 21.3469 27.0998 20.7645C26.5092 20.1821 26.1774 19.3921 26.1774 18.5684C26.1774 18.2825 26.4124 18.0508 26.7023 18.0508Z" fill="#EDECEE"/>
<path d="M18.9752 28.5413C20.0628 28.3436 21.2022 28.1055 22.3833 27.8281M43.352 20.0512C42.2549 20.6369 41.0748 21.2233 39.8238 21.8026" stroke="#F7F7F8" stroke-width="2"/>
</svg>
